<svg width="28" height="28" viewBox="0 0 28 28" fill="none" xmlns="http://www.w3.org/2000/svg">
<g id="Frame">
<g clip-path="url(#clip0_62_151)">
<path id="Vector" d="M14 27.125C21.2487 27.125 27.125 21.2487 27.125 14C27.125 6.75126 21.2487 0.875 14 0.875C6.75126 0.875 0.875 6.75126 0.875 14C0.875 21.2487 6.75126 27.125 14 27.125Z" fill="#F5F5F5"/>
<path id="Vector_2" d="M14 19.25C16.8995 19.25 19.25 16.8995 19.25 14C19.25 11.1005 16.8995 8.75 14 8.75C11.1005 8.75 8.75 11.1005 8.75 14C8.75 16.8995 11.1005 19.25 14 19.25Z" fill="#ED4C5C"/>
</g>
<rect x="0.5" y="0.5" width="27" height="27" rx="13.5" stroke="#A79F9F"/>
</g>
<defs>
<clipPath id="clip0_62_151">
<rect width="28" height="28" rx="14" fill="white"/>
</clipPath>
</defs>
</svg>
