<svg width="28" height="28" viewBox="0 0 28 28" fill="none" xmlns="http://www.w3.org/2000/svg">
<g id="Frame">
<g clip-path="url(#clip0_62_98)">
<g id="Mask group">
<mask id="mask0_62_98" style="mask-type:luminance" maskUnits="userSpaceOnUse" x="0" y="0" width="28" height="28">
<g id="Group">
<path id="Vector" d="M14 28C21.732 28 28 21.732 28 14C28 6.26801 21.732 0 14 0C6.26801 0 0 6.26801 0 14C0 21.732 6.26801 28 14 28Z" fill="white"/>
</g>
</mask>
<g mask="url(#mask0_62_98)">
<g id="Group_2">
<path id="Vector_2" d="M0 0L0.4375 1.20312L0 2.46094V3.71875L1.75 6.67188L0 9.625V11.375L1.75 14L0 16.625V18.375L1.75 21.3281L0 24.2812V28L1.20312 27.5625L2.46094 28H3.71875L6.67188 26.25L9.625 28H11.375L14 26.25L16.625 28H18.375L21.3281 26.25L24.2812 28H28L27.5625 26.7969L28 25.5391V24.2812L26.25 21.3281L28 18.375V16.625L26.25 14L28 11.375V9.625L26.25 6.67188L28 3.71875V0L26.7969 0.4375L25.5391 0H24.2812L21.3281 1.75L18.375 0H16.625L14 1.75L11.375 0H9.625L6.67188 1.75L3.71875 0H0Z" fill="#EEEEEE"/>
<path id="Vector_3" d="M18.375 0V5.90625L24.2812 0H18.375ZM28 3.71875L22.0938 9.625H28V3.71875ZM0 9.625H5.90625L0 3.71875V9.625ZM3.71875 0L9.625 5.90625V0H3.71875ZM9.625 28V22.0938L3.71875 28H9.625ZM0 24.2812L5.90625 18.375H0V24.2812ZM28 18.375H22.0938L28 24.2812V18.375ZM24.2812 28L18.375 22.0938V28H24.2812Z" fill="#0052B4"/>
<path id="Vector_4" d="M0 0V2.46094L7.16406 9.625H9.625L0 0ZM11.375 0V11.375H0V16.625H11.375V28H16.625V16.625H28V11.375H16.625V0H11.375ZM25.5391 0L18.375 7.16406V9.625L28 0H25.5391ZM9.625 18.375L0 28H2.46094L9.625 20.8359V18.375ZM18.375 18.375L28 28V25.5391L20.8359 18.375H18.375Z" fill="#D80027"/>
</g>
</g>
</g>
</g>
<rect x="0.5" y="0.5" width="27" height="27" rx="13.5" stroke="#A79F9F"/>
</g>
<defs>
<clipPath id="clip0_62_98">
<rect width="28" height="28" rx="14" fill="white"/>
</clipPath>
</defs>
</svg>
