<svg width="28" height="28" viewBox="0 0 28 28" fill="none" xmlns="http://www.w3.org/2000/svg">
<g id="Frame">
<g clip-path="url(#clip0_62_148)">
<path id="Vector" d="M21 2.8875C18.9875 1.61875 16.5813 0.875 14 0.875C11.4187 0.875 9.0125 1.61875 7 2.8875V25.0687C9.0125 26.3375 11.4187 27.0813 14 27.0813C16.5813 27.0813 18.9875 26.3375 21 25.0687V2.8875Z" fill="#F9F9F9"/>
<path id="Vector_2" d="M21 2.88751V25.0688C24.675 22.7938 27.125 18.5938 27.125 13.9563C27.125 9.31876 24.675 5.20626 21 2.88751ZM7 2.88751C3.325 5.20626 0.875 9.40626 0.875 14C0.875 18.5938 3.325 22.7938 7 25.1125V2.88751ZM18.7688 13.825C18.5938 13.7375 18.55 13.5625 18.5938 13.475L19.0312 11.9L17.5 12.2063C17.4562 12.2063 17.2813 12.2063 17.2375 11.9L17.1062 11.375L16.0563 12.6C16.0563 12.6 15.3562 13.3438 15.575 12.2063L16.0125 9.80001L15.1813 10.2375C15.1375 10.2375 14.9625 10.2813 14.7438 9.84376L14 8.31251L13.2125 9.75626C12.9938 10.1938 12.8188 10.15 12.775 10.15L11.9437 9.71251L12.3812 12.1188C12.6 13.2563 11.9 12.5125 11.9 12.5125L10.85 11.2875L10.7188 11.8125C10.6312 12.1188 10.5 12.1188 10.4562 12.1188L8.925 11.8125L9.3625 13.3875C9.3625 13.5188 9.3625 13.65 9.1875 13.7375L8.75 14C8.75 14 10.5 15.4 11.0687 15.8813C11.2 15.9688 11.4625 16.2313 11.375 16.5375L11.1562 17.15L13.5625 16.8C13.6938 16.8 13.9562 16.8 13.9125 17.1938L13.7812 19.6875H14.2188L14.0875 17.1938C14.0875 16.8 14.35 16.8 14.4375 16.8L16.8438 17.15L16.625 16.5375C16.5375 16.2313 16.8 15.9688 16.9313 15.8813C17.5 15.4 19.25 14 19.25 14L18.7688 13.825Z" fill="#ED4C5C"/>
</g>
<rect x="0.5" y="0.5" width="27" height="27" rx="13.5" stroke="#A79F9F"/>
</g>
<defs>
<clipPath id="clip0_62_148">
<rect width="28" height="28" rx="14" fill="white"/>
</clipPath>
</defs>
</svg>
