<svg width="28" height="28" viewBox="0 0 28 28" fill="none" xmlns="http://www.w3.org/2000/svg">
<g id="Frame">
<g clip-path="url(#clip0_62_154)">
<g id="Mask group">
<mask id="mask0_62_154" style="mask-type:luminance" maskUnits="userSpaceOnUse" x="0" y="0" width="28" height="28">
<g id="Group">
<path id="Vector" d="M14 28C21.732 28 28 21.732 28 14C28 6.26801 21.732 0 14 0C6.26801 0 0 6.26801 0 14C0 21.732 6.26801 28 14 28Z" fill="white"/>
</g>
</mask>
<g mask="url(#mask0_62_154)">
<g id="Group_2">
<path id="Vector_2" d="M14 0H28V3.5L26.25 5.25L28 7V10.5L26.25 12.25L28 14V17.5L26.25 19.25L28 21V24.5L14 26.25L0 24.5V21L1.75 19.25L0 17.5V14L14 0Z" fill="#EEEEEE"/>
<path id="Vector_3" d="M12.25 3.5H28V7H12.25V3.5ZM12.25 10.5H28V14H14L12.25 10.5ZM0 17.5H28V21H0V17.5ZM0 24.5H28V28H0V24.5Z" fill="#D80027"/>
<path id="Vector_4" d="M0 0H14V14H0V0Z" fill="#0052B4"/>
<path id="Vector_5" d="M10.2266 13.2891L13.3438 11.0469H9.51562L12.6328 13.2891L11.4297 9.625L10.2266 13.2891ZM5.79688 13.2891L8.91406 11.0469H5.08594L8.20312 13.2891L7 9.625L5.79688 13.2891ZM1.36719 13.2891L4.48438 11.0469H0.65625L3.77344 13.2891L2.57031 9.625L1.36719 13.2891ZM10.2266 8.85938L13.3438 6.61719H9.51562L12.6328 8.85938L11.4297 5.19531L10.2266 8.85938ZM5.79688 8.85938L8.91406 6.61719H5.08594L8.20312 8.85938L7 5.19531L5.79688 8.85938ZM1.36719 8.85938L4.48438 6.61719H0.65625L3.77344 8.85938L2.57031 5.19531L1.36719 8.85938ZM10.2266 4.375L13.3438 2.13281H9.51562L12.6328 4.375L11.4297 0.710938L10.2266 4.375ZM5.79688 4.375L8.91406 2.13281H5.08594L8.20312 4.375L7 0.710938L5.79688 4.375ZM1.36719 4.375L4.48438 2.13281H0.65625L3.77344 4.375L2.57031 0.710938L1.36719 4.375Z" fill="#EEEEEE"/>
</g>
</g>
</g>
</g>
<rect x="0.5" y="0.5" width="27" height="27" rx="13.5" stroke="#A79F9F"/>
</g>
<defs>
<clipPath id="clip0_62_154">
<rect width="28" height="28" rx="14" fill="white"/>
</clipPath>
</defs>
</svg>
