<svg width="40" height="40" viewBox="0 0 40 40" fill="none" xmlns="http://www.w3.org/2000/svg">
<path d="M20 13.3333C21.8333 13.3333 23.3333 11.8333 23.3333 9.99999C23.3333 8.16666 21.8333 6.66666 20 6.66666C18.1666 6.66666 16.6666 8.16666 16.6666 9.99999C16.6666 11.8333 18.1666 13.3333 20 13.3333ZM20 16.6667C18.1666 16.6667 16.6666 18.1667 16.6666 20C16.6666 21.8333 18.1666 23.3333 20 23.3333C21.8333 23.3333 23.3333 21.8333 23.3333 20C23.3333 18.1667 21.8333 16.6667 20 16.6667ZM20 26.6667C18.1666 26.6667 16.6666 28.1667 16.6666 30C16.6666 31.8333 18.1666 33.3333 20 33.3333C21.8333 33.3333 23.3333 31.8333 23.3333 30C23.3333 28.1667 21.8333 26.6667 20 26.6667Z" fill="#4D5156"/>
</svg>
