<svg width="60" height="29" viewBox="0 0 60 29" fill="none" xmlns="http://www.w3.org/2000/svg">
<path d="M14 9.41L12.59 8L7 13.59L1.41 8L0 9.41L5.59 15L0 20.59L1.41 22L7 16.41L12.59 22L14 20.59L8.41 15L14 9.41Z" fill="#70757A"/>
<mask id="path-2-inside-1_24_32" fill="white">
<path d="M27 0H28V28.59H27V0Z"/>
</mask>
<path d="M28 28.59V0H26V28.59H28Z" fill="#DADCE0" mask="url(#path-2-inside-1_24_32)"/>
<path d="M51.1458 16.5833H50.3229L50.0313 16.3021C51.0874 15.0771 51.6678 13.5132 51.6667 11.8958C51.6667 10.5567 51.2696 9.24762 50.5256 8.13416C49.7816 7.02071 48.7241 6.15287 47.4869 5.6404C46.2497 5.12793 44.8883 4.99385 43.5749 5.2551C42.2615 5.51636 41.0551 6.16122 40.1081 7.10813C39.1612 8.05505 38.5164 9.2615 38.2551 10.5749C37.9938 11.8883 38.1279 13.2497 38.6404 14.4869C39.1529 15.7241 40.0207 16.7816 41.1342 17.5256C42.2476 18.2696 43.5567 18.6667 44.8958 18.6667C46.5729 18.6667 48.1146 18.0521 49.3021 17.0313L49.5833 17.3229V18.1458L54.7917 23.3438L56.3438 21.7917L51.1458 16.5833ZM44.8958 16.5833C42.3021 16.5833 40.2083 14.4896 40.2083 11.8958C40.2083 9.30209 42.3021 7.20834 44.8958 7.20834C47.4896 7.20834 49.5833 9.30209 49.5833 11.8958C49.5833 14.4896 47.4896 16.5833 44.8958 16.5833Z" fill="#4285F4"/>
</svg>
