<svg width="28" height="28" viewBox="0 0 28 28" fill="none" xmlns="http://www.w3.org/2000/svg">
<g id="Frame">
<g clip-path="url(#clip0_62_106)">
<path id="Vector" d="M13.9125 0.875C8.22501 0.875 3.36876 4.55 1.57501 9.625H26.3375C24.5 4.55 19.6438 0.875 13.9125 0.875Z" fill="#F2B200"/>
<path id="Vector_2" d="M13.9125 27.125C19.6438 27.125 24.5 23.4937 26.2938 18.375H1.57501C3.36876 23.4937 8.22501 27.125 13.9125 27.125Z" fill="#83BF4F"/>
<path id="Vector_3" d="M1.57499 9.625C1.09374 10.9812 0.831238 12.4688 0.831238 14C0.831238 15.5312 1.09374 17.0188 1.57499 18.375H26.3375C26.8187 17.0188 27.0812 15.5312 27.0812 14C27.0812 12.4688 26.8187 10.9812 26.3375 9.625H1.57499Z" fill="white"/>
<path id="Vector_4" d="M13.9125 17.5C15.8455 17.5 17.4125 15.933 17.4125 14C17.4125 12.067 15.8455 10.5 13.9125 10.5C11.9795 10.5 10.4125 12.067 10.4125 14C10.4125 15.933 11.9795 17.5 13.9125 17.5Z" fill="#428BC1"/>
<path id="Vector_5" d="M13.9125 17.0625C15.6038 17.0625 16.975 15.6914 16.975 14C16.975 12.3086 15.6038 10.9375 13.9125 10.9375C12.2211 10.9375 10.85 12.3086 10.85 14C10.85 15.6914 12.2211 17.0625 13.9125 17.0625Z" fill="white"/>
<g id="Group">
<path id="Vector_6" d="M12.775 11.375C12.8958 11.375 12.9937 11.2771 12.9937 11.1562C12.9937 11.0354 12.8958 10.9375 12.775 10.9375C12.6542 10.9375 12.5562 11.0354 12.5562 11.1562C12.5562 11.2771 12.6542 11.375 12.775 11.375Z" fill="#428BC1"/>
<path id="Vector_7" d="M12.075 11.7687C12.1958 11.7687 12.2938 11.6708 12.2938 11.55C12.2938 11.4292 12.1958 11.3312 12.075 11.3312C11.9542 11.3312 11.8563 11.4292 11.8563 11.55C11.8563 11.6708 11.9542 11.7687 12.075 11.7687Z" fill="#428BC1"/>
<path id="Vector_8" d="M11.5062 12.3375C11.627 12.3375 11.725 12.2396 11.725 12.1187C11.725 11.9979 11.627 11.9 11.5062 11.9C11.3854 11.9 11.2875 11.9979 11.2875 12.1187C11.2875 12.2396 11.3854 12.3375 11.5062 12.3375Z" fill="#428BC1"/>
<path id="Vector_9" d="M11.1125 13.0375C11.2333 13.0375 11.3312 12.9396 11.3312 12.8188C11.3312 12.6979 11.2333 12.6 11.1125 12.6C10.9917 12.6 10.8937 12.6979 10.8937 12.8188C10.8937 12.9396 10.9917 13.0375 11.1125 13.0375Z" fill="#428BC1"/>
<path id="Vector_10" d="M10.8937 13.825C11.0146 13.825 11.1125 13.7271 11.1125 13.6063C11.1125 13.4854 11.0146 13.3875 10.8937 13.3875C10.7729 13.3875 10.675 13.4854 10.675 13.6063C10.675 13.7271 10.7729 13.825 10.8937 13.825Z" fill="#428BC1"/>
<path id="Vector_11" d="M10.8937 14.6125C11.0146 14.6125 11.1125 14.5146 11.1125 14.3937C11.1125 14.2729 11.0146 14.175 10.8937 14.175C10.7729 14.175 10.675 14.2729 10.675 14.3937C10.675 14.5146 10.7729 14.6125 10.8937 14.6125Z" fill="#428BC1"/>
<path id="Vector_12" d="M11.1125 15.4C11.2333 15.4 11.3312 15.3021 11.3312 15.1812C11.3312 15.0604 11.2333 14.9625 11.1125 14.9625C10.9917 14.9625 10.8937 15.0604 10.8937 15.1812C10.8937 15.3021 10.9917 15.4 11.1125 15.4Z" fill="#428BC1"/>
<path id="Vector_13" d="M11.5062 16.1C11.627 16.1 11.725 16.0021 11.725 15.8813C11.725 15.7604 11.627 15.6625 11.5062 15.6625C11.3854 15.6625 11.2875 15.7604 11.2875 15.8813C11.2875 16.0021 11.3854 16.1 11.5062 16.1Z" fill="#428BC1"/>
<path id="Vector_14" d="M12.075 16.6687C12.1958 16.6687 12.2938 16.5708 12.2938 16.45C12.2938 16.3292 12.1958 16.2312 12.075 16.2312C11.9542 16.2312 11.8563 16.3292 11.8563 16.45C11.8563 16.5708 11.9542 16.6687 12.075 16.6687Z" fill="#428BC1"/>
<path id="Vector_15" d="M12.775 17.0625C12.8958 17.0625 12.9937 16.9646 12.9937 16.8438C12.9937 16.7229 12.8958 16.625 12.775 16.625C12.6542 16.625 12.5562 16.7229 12.5562 16.8438C12.5562 16.9646 12.6542 17.0625 12.775 17.0625Z" fill="#428BC1"/>
<path id="Vector_16" d="M13.5187 17.2375C13.6396 17.2375 13.7375 17.1396 13.7375 17.0187C13.7375 16.8979 13.6396 16.8 13.5187 16.8C13.3979 16.8 13.3 16.8979 13.3 17.0187C13.3 17.1396 13.3979 17.2375 13.5187 17.2375Z" fill="#428BC1"/>
<path id="Vector_17" d="M14.1312 17.0625C14.1312 16.9312 14.2187 16.8437 14.3062 16.8C14.4375 16.8 14.525 16.8875 14.5687 16.975C14.5687 17.1062 14.4812 17.1937 14.3937 17.2375C14.2187 17.2812 14.1312 17.1937 14.1312 17.0625Z" fill="#428BC1"/>
<path id="Vector_18" d="M15.0938 17.0625C15.2146 17.0625 15.3125 16.9646 15.3125 16.8438C15.3125 16.7229 15.2146 16.625 15.0938 16.625C14.9729 16.625 14.875 16.7229 14.875 16.8438C14.875 16.9646 14.9729 17.0625 15.0938 17.0625Z" fill="#428BC1"/>
<path id="Vector_19" d="M15.7938 16.6687C15.9146 16.6687 16.0125 16.5708 16.0125 16.45C16.0125 16.3292 15.9146 16.2312 15.7938 16.2312C15.6729 16.2312 15.575 16.3292 15.575 16.45C15.575 16.5708 15.6729 16.6687 15.7938 16.6687Z" fill="#428BC1"/>
<path id="Vector_20" d="M16.3625 16.1C16.4833 16.1 16.5812 16.0021 16.5812 15.8813C16.5812 15.7604 16.4833 15.6625 16.3625 15.6625C16.2417 15.6625 16.1437 15.7604 16.1437 15.8813C16.1437 16.0021 16.2417 16.1 16.3625 16.1Z" fill="#428BC1"/>
<path id="Vector_21" d="M16.7562 15.4C16.877 15.4 16.975 15.3021 16.975 15.1812C16.975 15.0604 16.877 14.9625 16.7562 14.9625C16.6354 14.9625 16.5375 15.0604 16.5375 15.1812C16.5375 15.3021 16.6354 15.4 16.7562 15.4Z" fill="#428BC1"/>
<path id="Vector_22" d="M16.975 14.6125C17.0958 14.6125 17.1937 14.5146 17.1937 14.3937C17.1937 14.2729 17.0958 14.175 16.975 14.175C16.8542 14.175 16.7562 14.2729 16.7562 14.3937C16.7562 14.5146 16.8542 14.6125 16.975 14.6125Z" fill="#428BC1"/>
<path id="Vector_23" d="M16.975 13.825C16.8437 13.825 16.7562 13.7375 16.7125 13.65C16.7125 13.5188 16.8 13.4313 16.8875 13.3875C17.0187 13.3875 17.1062 13.475 17.15 13.5625C17.1937 13.6938 17.1062 13.7813 16.975 13.825Z" fill="#428BC1"/>
<path id="Vector_24" d="M16.7562 13.0375C16.877 13.0375 16.975 12.9396 16.975 12.8188C16.975 12.6979 16.877 12.6 16.7562 12.6C16.6354 12.6 16.5375 12.6979 16.5375 12.8188C16.5375 12.9396 16.6354 13.0375 16.7562 13.0375Z" fill="#428BC1"/>
<path id="Vector_25" d="M16.3625 12.3375C16.4833 12.3375 16.5812 12.2396 16.5812 12.1187C16.5812 11.9979 16.4833 11.9 16.3625 11.9C16.2417 11.9 16.1437 11.9979 16.1437 12.1187C16.1437 12.2396 16.2417 12.3375 16.3625 12.3375Z" fill="#428BC1"/>
<path id="Vector_26" d="M15.7938 11.7687C15.9146 11.7687 16.0125 11.6708 16.0125 11.55C16.0125 11.4292 15.9146 11.3312 15.7938 11.3312C15.6729 11.3312 15.575 11.4292 15.575 11.55C15.575 11.6708 15.6729 11.7687 15.7938 11.7687Z" fill="#428BC1"/>
<path id="Vector_27" d="M15.3125 11.2437C15.2687 11.375 15.1375 11.4187 15.0062 11.375C14.875 11.3312 14.8312 11.2 14.875 11.0687C14.9187 10.9375 15.05 10.8937 15.1812 10.9375C15.3125 11.025 15.3562 11.1562 15.3125 11.2437ZM14.525 10.9812C14.525 11.1125 14.3937 11.2 14.2625 11.1562C14.1312 11.1562 14.0437 11.025 14.0875 10.8937C14.0875 10.7625 14.2187 10.675 14.35 10.7187C14.4812 10.7625 14.5687 10.8937 14.525 10.9812ZM13.7375 10.9375C13.7375 11.0687 13.65 11.1562 13.5625 11.2C13.4312 11.2 13.3437 11.1125 13.3 11.025C13.3 10.8937 13.3875 10.8062 13.475 10.7625C13.6062 10.7187 13.7375 10.8062 13.7375 10.9375Z" fill="#428BC1"/>
<path id="Vector_28" d="M13.9125 14.6562C14.2749 14.6562 14.5687 14.3624 14.5687 14C14.5687 13.6376 14.2749 13.3438 13.9125 13.3438C13.55 13.3438 13.2562 13.6376 13.2562 14C13.2562 14.3624 13.55 14.6562 13.9125 14.6562Z" fill="#428BC1"/>
<path id="Vector_29" d="M13.9125 10.9375L13.825 12.8187L13.9125 14L14.0437 12.8187L13.9125 10.9375ZM13.125 11.025L13.5187 12.9062L13.9125 14L13.7375 12.8187L13.125 11.025Z" fill="#428BC1"/>
<path id="Vector_30" d="M12.3812 11.3312L13.2562 13.0375L13.9125 14L13.4312 12.9062L12.3812 11.3312ZM11.7687 11.8125L13.0375 13.2562L13.9125 14L13.1687 13.0812L11.7687 11.8125Z" fill="#428BC1"/>
<path id="Vector_31" d="M11.2875 12.4688L12.8625 13.5187L13.9125 14L12.95 13.3L11.2875 12.4688Z" fill="#428BC1"/>
<path id="Vector_32" d="M10.9812 13.2125L12.775 13.7812L13.9125 14L12.8187 13.6062L10.9812 13.2125ZM10.85 14L12.775 14.0875L13.9125 14L12.775 13.9125L10.85 14Z" fill="#428BC1"/>
<path id="Vector_33" d="M10.9813 14.7875L12.8188 14.3938L13.9125 14L12.775 14.2188L10.9813 14.7875ZM11.2875 15.5312L12.95 14.7L13.9125 14L12.8625 14.4812L11.2875 15.5312Z" fill="#428BC1"/>
<path id="Vector_34" d="M11.7687 16.1438L13.1687 14.9187L13.9125 14L13.0375 14.7438L11.7687 16.1438ZM12.3812 16.6687L13.4312 15.05L13.9125 14L13.2562 14.9625L12.3812 16.6687Z" fill="#428BC1"/>
<path id="Vector_35" d="M13.125 16.975L13.7375 15.1813L13.9125 14L13.5187 15.0938L13.125 16.975ZM13.9125 17.0625L14.0437 15.1813L13.9125 14L13.825 15.1813L13.9125 17.0625ZM14.7 16.975L14.35 15.0938L13.9125 14L14.1312 15.1813L14.7 16.975Z" fill="#428BC1"/>
<path id="Vector_36" d="M15.4437 16.6687L14.6125 14.9625L13.9125 14L14.4375 15.0938L15.4437 16.6687ZM16.1 16.1438L14.8312 14.7438L13.9125 14L14.7 14.9187L16.1 16.1438Z" fill="#428BC1"/>
<path id="Vector_37" d="M16.5812 15.5312L15.0062 14.4812L13.9125 14L14.875 14.7L16.5812 15.5312ZM16.8875 14.7875L15.0937 14.2187L13.9125 14L15.05 14.3937L16.8875 14.7875ZM16.975 14L15.0937 13.8687L13.9125 14L15.0937 14.0875L16.975 14ZM16.8875 13.2125L15.05 13.6062L13.9125 14L15.0937 13.7812L16.8875 13.2125Z" fill="#428BC1"/>
<path id="Vector_38" d="M16.5812 12.4688L14.875 13.3L13.9125 14L15.0062 13.5188L16.5812 12.4688ZM16.1 11.8563L14.7 13.0813L13.9125 14L14.8312 13.2563L16.1 11.8563Z" fill="#428BC1"/>
<path id="Vector_39" d="M15.4437 11.3312L14.4375 12.95L13.9125 14L14.6125 13.0375L15.4437 11.3312Z" fill="#428BC1"/>
<path id="Vector_40" d="M14.7437 11.025L14.1312 12.8187L13.9125 14L14.35 12.9062L14.7437 11.025Z" fill="#428BC1"/>
</g>
</g>
<rect x="0.5" y="0.5" width="27" height="27" rx="13.5" stroke="#A79F9F"/>
</g>
<defs>
<clipPath id="clip0_62_106">
<rect width="28" height="28" rx="14" fill="white"/>
</clipPath>
</defs>
</svg>
