<svg width="43" height="43" viewBox="0 0 43 43" fill="none" xmlns="http://www.w3.org/2000/svg">
<g id="Frame">
<path id="Vector" fill-rule="evenodd" clip-rule="evenodd" d="M6.71875 32.25C6.71875 31.8936 6.86032 31.5518 7.11233 31.2998C7.36433 31.0478 7.70612 30.9062 8.0625 30.9062H34.9375C35.2939 30.9062 35.6357 31.0478 35.8877 31.2998C36.1397 31.5518 36.2812 31.8936 36.2812 32.25C36.2812 32.6064 36.1397 32.9482 35.8877 33.2002C35.6357 33.4522 35.2939 33.5938 34.9375 33.5938H8.0625C7.70612 33.5938 7.36433 33.4522 7.11233 33.2002C6.86032 32.9482 6.71875 32.6064 6.71875 32.25ZM6.71875 21.5C6.71875 21.1436 6.86032 20.8018 7.11233 20.5498C7.36433 20.2978 7.70612 20.1562 8.0625 20.1562H34.9375C35.2939 20.1562 35.6357 20.2978 35.8877 20.5498C36.1397 20.8018 36.2812 21.1436 36.2812 21.5C36.2812 21.8564 36.1397 22.1982 35.8877 22.4502C35.6357 22.7022 35.2939 22.8438 34.9375 22.8438H8.0625C7.70612 22.8438 7.36433 22.7022 7.11233 22.4502C6.86032 22.1982 6.71875 21.8564 6.71875 21.5ZM6.71875 10.75C6.71875 10.3936 6.86032 10.0518 7.11233 9.79983C7.36433 9.54782 7.70612 9.40625 8.0625 9.40625H34.9375C35.2939 9.40625 35.6357 9.54782 35.8877 9.79983C36.1397 10.0518 36.2812 10.3936 36.2812 10.75C36.2812 11.1064 36.1397 11.4482 35.8877 11.7002C35.6357 11.9522 35.2939 12.0938 34.9375 12.0938H8.0625C7.70612 12.0938 7.36433 11.9522 7.11233 11.7002C6.86032 11.4482 6.71875 11.1064 6.71875 10.75Z" fill="black"/>
</g>
</svg>
